<svg width="232" height="391" viewBox="0 0 232 391" fill="none" xmlns="http://www.w3.org/2000/svg">
<g opacity="0.15">
<path d="M-559 46.0025C-542.565 49.3358 -515.065 71.3775 -480.111 62.0025C-445.157 52.6275 -428.259 0.585821 -391.222 1.00249C-354.185 1.41915 -339.37 58.7942 -302.333 64.0025C-265.296 69.2108 -250.481 24.1275 -213.444 26.0025C-176.407 27.8775 -161.593 73.8358 -124.556 73.0025C-87.5185 72.1692 -72.7037 24.0858 -35.6667 22.0025C1.37035 19.9192 16.1852 64.0442 53.2222 63.0025C90.2593 61.9608 105.074 11.5858 142.111 17.0025C179.148 22.4192 212.481 74.0025 231 89.0025" stroke="#C29BC9" stroke-width="2" stroke-linecap="round"/>
<path d="M-559 346.002C-542.565 349.336 -515.065 371.377 -480.111 362.002C-445.157 352.627 -428.259 300.586 -391.222 301.002C-354.185 301.419 -339.37 358.794 -302.333 364.002C-265.296 369.211 -250.481 324.127 -213.444 326.002C-176.407 327.877 -161.593 373.836 -124.556 373.002C-87.5185 372.169 -72.7037 324.086 -35.6667 322.002C1.37035 319.919 16.1852 364.044 53.2222 363.002C90.2593 361.961 105.074 311.586 142.111 317.002C179.148 322.419 212.481 374.002 231 389.002" stroke="#C29BC9" stroke-width="2" stroke-linecap="round"/>
<path d="M-559 316.002C-542.565 319.336 -515.065 341.377 -480.111 332.002C-445.157 322.627 -428.259 270.586 -391.222 271.002C-354.185 271.419 -339.37 328.794 -302.333 334.002C-265.296 339.211 -250.481 294.127 -213.444 296.002C-176.407 297.877 -161.593 343.836 -124.556 343.002C-87.5185 342.169 -72.7037 294.086 -35.6667 292.002C1.37035 289.919 16.1852 334.044 53.2222 333.002C90.2593 331.961 105.074 281.586 142.111 287.002C179.148 292.419 212.481 344.002 231 359.002" stroke="#C29BC9" stroke-width="2" stroke-linecap="round"/>
<path d="M-559 286.002C-542.565 289.336 -515.065 311.377 -480.111 302.002C-445.157 292.627 -428.259 240.586 -391.222 241.002C-354.185 241.419 -339.37 298.794 -302.333 304.002C-265.296 309.211 -250.481 264.127 -213.444 266.002C-176.407 267.877 -161.593 313.836 -124.556 313.002C-87.5185 312.169 -72.7037 264.086 -35.6667 262.002C1.37035 259.919 16.1852 304.044 53.2222 303.002C90.2593 301.961 105.074 251.586 142.111 257.002C179.148 262.419 212.481 314.002 231 329.002" stroke="#C29BC9" stroke-width="2" stroke-linecap="round"/>
<path d="M-559 256.002C-542.565 259.336 -515.065 281.377 -480.111 272.002C-445.157 262.627 -428.259 210.586 -391.222 211.002C-354.185 211.419 -339.37 268.794 -302.333 274.002C-265.296 279.211 -250.481 234.127 -213.444 236.002C-176.407 237.877 -161.593 283.836 -124.556 283.002C-87.5185 282.169 -72.7037 234.086 -35.6667 232.002C1.37035 229.919 16.1852 274.044 53.2222 273.002C90.2593 271.961 105.074 221.586 142.111 227.002C179.148 232.419 212.481 284.002 231 299.002" stroke="#C29BC9" stroke-width="2" stroke-linecap="round"/>
<path d="M-559 226.002C-542.565 229.336 -515.065 251.377 -480.111 242.002C-445.157 232.627 -428.259 180.586 -391.222 181.002C-354.185 181.419 -339.37 238.794 -302.333 244.002C-265.296 249.211 -250.481 204.127 -213.444 206.002C-176.407 207.877 -161.593 253.836 -124.556 253.002C-87.5185 252.169 -72.7037 204.086 -35.6667 202.002C1.37035 199.919 16.1852 244.044 53.2222 243.002C90.2593 241.961 105.074 191.586 142.111 197.002C179.148 202.419 212.481 254.002 231 269.002" stroke="#C29BC9" stroke-width="2" stroke-linecap="round"/>
<path d="M-559 196.002C-542.565 199.336 -515.065 221.377 -480.111 212.002C-445.157 202.627 -428.259 150.586 -391.222 151.002C-354.185 151.419 -339.37 208.794 -302.333 214.002C-265.296 219.211 -250.481 174.127 -213.444 176.002C-176.407 177.877 -161.593 223.836 -124.556 223.002C-87.5185 222.169 -72.7037 174.086 -35.6667 172.002C1.37035 169.919 16.1852 214.044 53.2222 213.002C90.2593 211.961 105.074 161.586 142.111 167.002C179.148 172.419 212.481 224.002 231 239.002" stroke="#C29BC9" stroke-width="2" stroke-linecap="round"/>
<path d="M-559 166.002C-542.565 169.336 -515.065 191.377 -480.111 182.002C-445.157 172.627 -428.259 120.586 -391.222 121.002C-354.185 121.419 -339.37 178.794 -302.333 184.002C-265.296 189.211 -250.481 144.127 -213.444 146.002C-176.407 147.877 -161.593 193.836 -124.556 193.002C-87.5185 192.169 -72.7037 144.086 -35.6667 142.002C1.37035 139.919 16.1852 184.044 53.2222 183.002C90.2593 181.961 105.074 131.586 142.111 137.002C179.148 142.419 212.481 194.002 231 209.002" stroke="#C29BC9" stroke-width="2" stroke-linecap="round"/>
<path d="M-559 136.002C-542.565 139.336 -515.065 161.377 -480.111 152.002C-445.157 142.627 -428.259 90.5858 -391.222 91.0025C-354.185 91.4192 -339.37 148.794 -302.333 154.002C-265.296 159.211 -250.481 114.127 -213.444 116.002C-176.407 117.877 -161.593 163.836 -124.556 163.002C-87.5185 162.169 -72.7037 114.086 -35.6667 112.002C1.37035 109.919 16.1852 154.044 53.2222 153.002C90.2593 151.961 105.074 101.586 142.111 107.002C179.148 112.419 212.481 164.002 231 179.002" stroke="#C29BC9" stroke-width="2" stroke-linecap="round"/>
<path d="M-559 106.002C-542.565 109.336 -515.065 131.377 -480.111 122.002C-445.157 112.627 -428.259 60.5858 -391.222 61.0025C-354.185 61.4192 -339.37 118.794 -302.333 124.002C-265.296 129.211 -250.481 84.1275 -213.444 86.0025C-176.407 87.8775 -161.593 133.836 -124.556 133.002C-87.5185 132.169 -72.7037 84.0858 -35.6667 82.0025C1.37035 79.9192 16.1852 124.044 53.2222 123.002C90.2593 121.961 105.074 71.5858 142.111 77.0025C179.148 82.4192 212.481 134.002 231 149.002" stroke="#C29BC9" stroke-width="2" stroke-linecap="round"/>
<path d="M-559 76.0025C-542.565 79.3358 -515.065 101.377 -480.111 92.0025C-445.157 82.6275 -428.259 30.5858 -391.222 31.0025C-354.185 31.4192 -339.37 88.7942 -302.333 94.0025C-265.296 99.2108 -250.481 54.1275 -213.444 56.0025C-176.407 57.8775 -161.593 103.836 -124.556 103.002C-87.5185 102.169 -72.7037 54.0858 -35.6667 52.0025C1.37035 49.9192 16.1852 94.0442 53.2222 93.0025C90.2593 91.9608 105.074 41.5858 142.111 47.0025C179.148 52.4192 212.481 104.002 231 119.002" stroke="#C29BC9" stroke-width="2" stroke-linecap="round"/>
</g>
</svg>
