<svg width="172" height="241" viewBox="0 0 172 241" fill="none" xmlns="http://www.w3.org/2000/svg">
<path d="M1 46.0025C17.4352 49.3358 44.9352 71.3775 79.8889 62.0025C114.843 52.6275 131.741 0.585821 168.778 1.00249C205.815 1.41915 220.63 58.7942 257.667 64.0025C294.704 69.2108 309.519 24.1275 346.556 26.0025C383.593 27.8775 398.407 73.8358 435.444 73.0025C472.481 72.1692 487.296 24.0858 524.333 22.0025C561.37 19.9192 576.185 64.0442 613.222 63.0025C650.259 61.9608 665.074 11.5858 702.111 17.0025C739.148 22.4192 772.481 74.0025 791 89.0025" stroke="#C29BC9" stroke-width="2" stroke-linecap="round"/>
<path d="M1 196.002C17.4352 199.336 44.9352 221.377 79.8889 212.002C114.843 202.627 131.741 150.586 168.778 151.002C205.815 151.419 220.63 208.794 257.667 214.002C294.704 219.211 309.519 174.127 346.556 176.002C383.593 177.877 398.407 223.836 435.444 223.002C472.481 222.169 487.296 174.086 524.333 172.002C561.37 169.919 576.185 214.044 613.222 213.002C650.259 211.961 665.074 161.586 702.111 167.002C739.148 172.419 772.481 224.002 791 239.002" stroke="#C29BC9" stroke-width="2" stroke-linecap="round"/>
<path d="M1 164.002C17.4352 167.336 44.9352 189.377 79.8889 180.002C114.843 170.627 131.741 118.586 168.778 119.002C205.815 119.419 220.63 176.794 257.667 182.002C294.704 187.211 309.519 142.127 346.556 144.002C383.593 145.877 398.407 191.836 435.444 191.002C472.481 190.169 487.296 142.086 524.333 140.002C561.37 137.919 576.185 182.044 613.222 181.002C650.259 179.961 665.074 129.586 702.111 135.002C739.148 140.419 772.481 192.002 791 207.002" stroke="#C29BC9" stroke-width="2" stroke-linecap="round"/>
<path d="M1 136.002C17.4352 139.336 44.9352 161.377 79.8889 152.002C114.843 142.627 131.741 90.5858 168.778 91.0025C205.815 91.4192 220.63 148.794 257.667 154.002C294.704 159.211 309.519 114.127 346.556 116.002C383.593 117.877 398.407 163.836 435.444 163.002C472.481 162.169 487.296 114.086 524.333 112.002C561.37 109.919 576.185 154.044 613.222 153.002C650.259 151.961 665.074 101.586 702.111 107.002C739.148 112.419 772.481 164.002 791 179.002" stroke="#C29BC9" stroke-width="2" stroke-linecap="round"/>
<path d="M1 106.002C17.4352 109.336 44.9352 131.377 79.8889 122.002C114.843 112.627 131.741 60.5858 168.778 61.0025C205.815 61.4192 220.63 118.794 257.667 124.002C294.704 129.211 309.519 84.1275 346.556 86.0025C383.593 87.8775 398.407 133.836 435.444 133.002C472.481 132.169 487.296 84.0858 524.333 82.0025C561.37 79.9192 576.185 124.044 613.222 123.002C650.259 121.961 665.074 71.5858 702.111 77.0025C739.148 82.4192 772.481 134.002 791 149.002" stroke="#C29BC9" stroke-width="2" stroke-linecap="round"/>
<path d="M1 76.0025C17.4352 79.3358 44.9352 101.377 79.8889 92.0025C114.843 82.6275 131.741 30.5858 168.778 31.0025C205.815 31.4192 220.63 88.7942 257.667 94.0025C294.704 99.2108 309.519 54.1275 346.556 56.0025C383.593 57.8775 398.407 103.836 435.444 103.002C472.481 102.169 487.296 54.0858 524.333 52.0025C561.37 49.9192 576.185 94.0442 613.222 93.0025C650.259 91.9608 665.074 41.5858 702.111 47.0025C739.148 52.4192 772.481 104.002 791 119.002" stroke="#C29BC9" stroke-width="2" stroke-linecap="round"/>
</svg>
